# AST/ASF file generated using VICON BodyLanguage
# -----------------------------------------------
:version 1.10
:name VICON
:units
  mass 1.0
  length 0.45
  angle deg
:documentation
   .ast/.asf automatically generated from VICON data using
   VICON BodyBuilder and BodyLanguage model FoxedUp or BRILLIANT.MOD
:root
   order TX TY TZ RX RY RZ
   axis XYZ
   position 0 0 0  
   orientation 0 0 0 
:bonedata
  begin
     id 1 
     name lhipjoint
     direction 0.677091 -0.635792 0.370561 
     length 2.74323 
     axis 0 0 0  XYZ
  end
  begin
     id 2 
     name lfemur
     direction 0.34202 -0.939693 0  
     length 7.44995  
     axis 0 0 20  XYZ
    dof rx ry rz
    limits (-160.0 20.0)
           (-70.0 70.0)
           (-60.0 70.0)
  end
  begin
     id 3 
     name ltibia
     direction 0.34202 -0.939693 0   
     length 7.34467   
     axis 0 0 20   XYZ
    dof rx
    limits (-10.0 170.0)
  end
  begin
     id 4 
     name lfoot
     direction 0.101953 -0.280114 0.954537   
     length 1.72105   
     axis -90 7.62852e-016 20   XYZ
    dof rx rz
    limits (-45.0 90.0)
           (-70.0 20.0)
  end
  begin
     id 5 
     name ltoes
     direction 1.53537e-011 -4.21915e-011 1   
     length 0.865872   
     axis -90 7.62852e-016 20   XYZ
    dof rx
    limits (-90.0 20.0)
  end
  begin
     id 6 
     name rhipjoint
     direction -0.695735 -0.620586 0.361699   
     length 2.81045  
     axis 0 0 0  XYZ 
  end
  begin
     id 7 
     name rfemur
     direction -0.34202 -0.939693 0   
     length 7.29387   
     axis 0 0 -20   XYZ
    dof rx ry rz
    limits (-160.0 20.0)
           (-70.0 70.0)
           (-70.0 60.0)
  end
  begin
     id 8 
     name rtibia
     direction -0.34202 -0.939693 0   
     length 7.44935   
     axis 0 0 -20   XYZ
    dof rx
    limits (-10.0 170.0)
 end
 begin
     id 9 
     name rfoot
     direction -0.104163 -0.286184 0.952496   
     length 1.77731  
     axis -90 -7.62852e-016 -20   XYZ
    dof rx rz
    limits (-45.0 90.0)
           (-20.0 70.0)
  end
  begin
     id 10 
     name rtoes
     direction -1.5355e-011 -4.21888e-011 1   
     length 0.892424   
     axis -90 -7.62852e-016 -20   XYZ
    dof rx
    limits (-90.0 20.0)
  end
  begin
     id 11 
     name lowerback
     direction 0.0100202 0.997226 -0.0737589   
     length 2.16892   
     axis 0 0 0   XYZ
    dof rx ry rz
    limits (-20.0 45.0)
           (-30.0 30.0)
           (-30.0 30.0)
  end
  begin
     id 12 
     name upperback
     direction 0.00432398 0.999988 -0.00215019   
     length 2.17326   
     axis 0 0 0   XYZ
    dof rx ry rz
    limits (-20.0 45.0)
           (-30.0 30.0)
           (-30.0 30.0)
  end
  begin
     id 13 
     name thorax
     direction -0.00195047 0.999485 0.0320434   
     length 2.18139   
     axis 0 0 0   XYZ
    dof rx ry rz
    limits (-20.0 45.0)
           (-30.0 30.0)
           (-30.0 30.0)
  end
  begin
     id 14 
     name lowerneck
     direction 0.00782762 0.986241 0.165128   
     length 1.88415   
     axis 0 0 0   XYZ
    dof rx ry rz
    limits (-20.0 45.0)
           (-30.0 30.0)
           (-30.0 30.0)
  end
  begin
     id 15 
     name upperneck
     direction 0.00988667 0.981098 -0.193258   
     length 1.9242   
     axis 0 0 0   XYZ
    dof rx ry rz
    limits (-20.0 45.0)
           (-30.0 30.0)
           (-30.0 30.0)
  end
  begin
     id 16
     name head
     direction 0.00252199 0.996513 -0.0833958  
     length 1.93887  
     axis 0 0 0   XYZ
    dof rx ry rz
    limits (-20.0 45.0)
           (-30.0 30.0)
           (-30.0 30.0)
  end
  begin
     id 17 
     name lclavicle
     direction 0.929492 0.368193 -0.0218667  
     length 3.5955  
     axis 0 0 0   XYZ
    dof ry rz
    limits (-20.0 10.0)
           (0.0 20.0)
  end
  begin
     id 18 
     name lhumerus
     direction 1 -4.48972e-011 1.41911e-027   
     length 5.2795   
     axis 180 -30 -90   XYZ
    dof rx ry rz
    limits (-60.0 90.0)
           (-90.0 90.0)
           (-90.0 90.0)
  end
  begin
     id 19
     name lradius
     direction 1 -4.48963e-011 7.05772e-027   
     length 3.53504   
     axis 180 -30 -90   XYZ
    dof rx
    limits (-10.0 170.0)
  end
  begin
     id 20
     name lwrist
     direction 1 -4.48957e-011 9.54866e-027   
     length 1.76752   
     axis -7.69462e-015 90 90   XYZ
    dof ry
    limits (-180.0 0.0)
 end
  begin
     id 21 
     name lhand
     direction 1 -4.48979e-011 1.90973e-026   
     length 0.667948   
     axis -1.21857e-014 90 90   XYZ
    dof rx rz
    limits (-90.0 90.0)
           (-45.0 45.0)
  end
  begin
     id 22 
     name lfingers
     direction 1 -4.48987e-011 3.81946e-026   
     length 0.538517   
     axis -2.43714e-014 90 90   XYZ
    dof rx
    limits (0.0 90.0)
  end
  begin
     id 23
     name lthumb
     direction 0.707107 -6.34962e-011 0.707107   
     length 0.773206   
     axis -90 45 2.85299e-015   XYZ
    dof rx rz
    limits (-45.0 45.0)
           (-45.0 45.0)
  end
  begin
     id 24 
     name rclavicle
     direction -0.898763 0.414256 -0.143584   
     length 3.5176  
     axis 0 0 0   XYZ 
    dof ry rz
    limits (-10.0 20.0)
           (-20.0 0.0)
  end
  begin
     id 25 
     name rhumerus
     direction -1 -4.48971e-011 1.129e-027  
     length 5.25035   
     axis 180 30 90   XYZ
    dof rx ry rz
    limits (-90.0 60.0)
           (-90.0 90.0)
           (-90.0 90.0)
  end
  begin
     id 26 
     name rradius
     direction -1 -4.48955e-011 6.34664e-027   
     length 3.58884   
     axis 180 30 90   XYZ
    dof rx
    limits (-10.0 170.0)
  end
  begin
     id 27 
     name rwrist
     direction -1 -4.48966e-011 9.54866e-027   
     length 1.79442   
     axis -7.69462e-015 -90 -90   XYZ
    dof ry
    limits (-180.0 0.0)
  end
  begin
     id 28
     name rhand
     direction -1 -4.48973e-011 1.90973e-026   
     length 0.779235   
     axis -1.21857e-014 -90 -90   XYZ
    dof rx rz
    limits (-90.0 90.0)
           (-45.0 45.0)
  end
  begin
     id 29
     name rfingers
     direction -1 -4.48984e-011 3.81946e-026   
     length 0.62824   
     axis -2.43714e-014 -90 -90   XYZ
    dof rx
    limits (0.0 90.0)
  end
  begin
     id 30
     name rthumb
     direction -0.707107 -6.34968e-011 0.707107   
     length 0.90203   
     axis -90 -45 -2.85299e-015   XYZ
    dof rx rz
    limits (-45.0 45.0)
           (-45.0 45.0)
  end
:hierarchy
  begin
    root lhipjoint rhipjoint lowerback
    lhipjoint lfemur
    lfemur ltibia
    ltibia lfoot
    lfoot ltoes
    rhipjoint rfemur
    rfemur rtibia
    rtibia rfoot
    rfoot rtoes
    lowerback upperback
    upperback thorax
    thorax lowerneck lclavicle rclavicle
    lowerneck upperneck
    upperneck head
    lclavicle lhumerus
    lhumerus lradius
    lradius lwrist
    lwrist lhand lthumb
    lhand lfingers
    rclavicle rhumerus
    rhumerus rradius
    rradius rwrist
    rwrist rhand rthumb
    rhand rfingers
  end

#!OML:ASF I:\Random Stuff\random\construction\7_22_03\Session 2\subj1.ASF
:FULLY-SPECIFIED
:DEGREES
1
root -20.3912 17.383 -2.96503 -101.512 87.912 -106.606
lowerback 0.167621 1.12553 -0.108795
upperback -1.52732 1.5161 0.467398
thorax -1.67319 0.766635 0.514626
lowerneck -23.3791 0.673979 0.862412
upperneck 32.7832 0.280488 2.72181
head 15.4614 0.875756 1.12697
rclavicle -9.92681e-015 3.77691e-015
rhumerus -34.0455 -4.47871 -80.2484
rradius 29.0151
rwrist 2.9345
rhand -21.2827 15.8509
rfingers 7.12502
rthumb 5.10137 -14.0677
lclavicle -9.92681e-015 3.77691e-015
lhumerus -35.4409 -2.61659 88.0579
lradius 31.2109
lwrist 31.4206
lhand -24.8406 56.5531
lfingers 7.12502
lthumb 1.66554 86.5263
rfemur -9.8422 34.6065 18.4753
rtibia 20.3952
rfoot -26.3383 -43.5963
rtoes 21.3355
lfemur -14.2331 -25.769 -13.8159
ltibia 28.257
lfoot -25.1622 32.7014
ltoes -27.5026
2
root -20.3891 17.3878 -2.95719 -104.313 87.8314 -109.467
lowerback 0.132065 1.11363 -0.055619
upperback -1.46601 1.49902 0.416312
thorax -1.58741 0.756528 0.434443
lowerneck -23.5301 0.771798 0.984044
upperneck 32.76 0.353253 2.75845
head 15.4847 0.925672 1.13676
rclavicle 7.9079e-015 -1.19271e-015
rhumerus -33.8831 -4.97653 -80.1536
rradius 28.6354
rwrist 3.37618
rhand -20.08 22.2234
rfingers 7.12502
rthumb 6.26256 -7.66401
lclavicle 7.9079e-015 -1.19271e-015
lhumerus -35.2239 -1.90047 87.3554
lradius 30.654
lwrist 29.5007
lhand -22.2459 56.2901
lfingers 7.12502
lthumb 4.17135 86.229
rfemur -9.80441 34.4935 18.5427
rtibia 20.2454
rfoot -26.1923 -43.6231
rtoes 21.2467
lfemur -14.2758 -26.6861 -13.6838
ltibia 28.2747
lfoot -25.5058 33.2634
ltoes -25.8987
3
root -20.3883 17.3902 -2.95278 -107.577 87.7886 -112.766
lowerback 0.157688 1.08526 -0.0177443
upperback -1.4134 1.45995 0.36505
thorax -1.5452 0.73573 0.361528
lowerneck -23.7221 0.870942 1.1172
upperneck 32.8268 0.444897 2.73978
head 15.5599 0.978712 1.12797
rclavicle -1.86361e-016 3.97569e-016
rhumerus -33.7486 -5.2963 -80.0483
rradius 28.2724
rwrist 3.64957
rhand -20.1525 22.063
rfingers 7.12502
rthumb 6.1926 -7.82646
lclavicle -1.86361e-016 3.97569e-016
lhumerus -35.1608 -1.55354 86.9882
lradius 30.1371
lwrist 29.1294
lhand -22.0749 55.5935
lfingers 7.12502
lthumb 4.33646 85.5291
rfemur -9.83655 34.3632 18.5598
rtibia 20.2787
rfoot -25.6105 -43.8322
rtoes 19.9647
lfemur -14.3124 -26.8538 -13.6307
ltibia 28.2061
lfoot -24.5593 33.6655
ltoes -26.087
4
root -20.388 17.3923 -2.94928 -110.795 87.7887 -116.041
lowerback 0.160075 1.05582 -0.042711
upperback -1.35145 1.41885 0.318373
thorax -1.48216 0.71476 0.329086
lowerneck -23.9446 0.946144 1.23531
upperneck 32.8459 0.495558 2.73697
head 15.6202 1.01322 1.11935
rclavicle -1.03057e-014 -1.78906e-015
rhumerus -33.6434 -5.59046 -79.9286
rradius 27.9759
rwrist 3.84984
rhand -20.1439 21.9436
rfingers 7.12502
rthumb 6.20092 -7.94565
lclavicle -1.03057e-014 -1.78906e-015
lhumerus -35.153 -1.30028 86.7368
lradius 30.0085
lwrist 29.4121
lhand -22.5388 55.9929
lfingers 7.12502
lthumb 3.88846 85.9372
rfemur -9.87802 34.239 18.5043
rtibia 20.2602
rfoot -24.5886 -44.1846
rtoes 17.4148
lfemur -14.4069 -26.7355 -13.6263
ltibia 28.1676
lfoot -24.0678 33.6532
ltoes -25.9678
5
root -20.3884 17.392 -2.94468 -114.375 87.7571 -119.643
lowerback 0.224426 1.01369 -0.0816855
upperback -1.28537 1.36105 0.295669
thorax -1.45051 0.685735 0.328036
lowerneck -24.1636 0.963586 1.3119
upperneck 32.7952 0.467832 2.74739
head 15.6471 1.00947 1.10569
rclavicle -7.64079e-015 5.36719e-015
rhumerus -33.5363 -5.78724 -79.853
rradius 27.6589
rwrist 3.99347
rhand -20.3095 21.8311
rfingers 7.12502
rthumb 6.04098 -8.06278
lclavicle -7.64079e-015 5.36719e-015
lhumerus -35.1454 -0.892479 86.4139
lradius 30.0522
lwrist 29.3129
lhand -22.2068 56.6525
lfingers 7.12502
lthumb 4.20911 86.5907
rfemur -9.88384 34.0966 18.4761
rtibia 20.239
rfoot -24.1693 -44.2965
rtoes 16.355
lfemur -14.4762 -26.6531 -13.6169
ltibia 28.1413
lfoot -25.0803 33.1367
ltoes -23.9397
6
root -20.3885 17.3929 -2.94034 -117.542 87.6661 -122.807
lowerback 0.329316 0.915485 -0.109658
upperback -1.16 1.22825 0.297156
thorax -1.38061 0.618929 0.3467
lowerneck -24.6177 1.0611 1.5012
upperneck 32.7982 0.524121 2.68327
head 15.7533 1.04275 1.06153
rclavicle -5.69021e-015 5.1684e-015
rhumerus -33.2102 -5.85941 -79.8786
rradius 27.2255
rwrist 4.21792
rhand -20.4248 21.8766
rfingers 7.12502
rthumb 5.92965 -8.02044
lclavicle -5.69021e-015 5.1684e-015
lhumerus -35.0117 -0.232895 85.9798
lradius 29.7873
lwrist 28.7464
lhand -21.799 56.5471
lfingers 7.12502
lthumb 4.60282 86.4771
rfemur -9.84591 33.9453 18.516
rtibia 20.1876
rfoot -24.0813 -44.2953
rtoes 16.4842
lfemur -14.5198 -26.5414 -13.5625
ltibia 28.1351
lfoot -27.232 32.1156
ltoes -19.4263
7
root -20.3874 17.3961 -2.93639 -119.833 87.5263 -125.135
lowerback 0.358771 0.914736 -0.0500365
upperback -1.16516 1.22872 0.347846
thorax -1.40229 0.6189 0.364604
lowerneck -24.5869 1.00161 1.27269
upperneck 32.711 0.46396 2.87082
head 15.7034 1.01503 1.16618
rclavicle -1.76049e-014 8.94531e-015
rhumerus -33.2427 -6.10401 -79.6017
rradius 26.9117
rwrist 4.39081
rhand -19.9536 22.12
rfingers 7.12502
rthumb 6.38458 -7.76374
lclavicle -1.76049e-014 8.94531e-015
lhumerus -35.1395 0.0199098 85.9548
lradius 29.701
lwrist 28.7266
lhand -22.0966 56.9666
lfingers 7.12502
lthumb 4.31548 86.9027
rfemur -9.82542 33.7904 18.5954
rtibia 20.0968
rfoot -23.9329 -44.3434
rtoes 16.1608
lfemur -14.6218 -26.333 -13.4352
ltibia 28.1542
lfoot -26.105 32.0475
ltoes -23.203
8
root -20.3868 17.3976 -2.93325 -122.677 87.3621 -128.036
lowerback 0.407737 0.880191 -0.0255477
upperback -1.19571 1.18423 0.406236
thorax -1.46151 0.596969 0.410207
lowerneck -24.5536 0.940484 1.11366
upperneck 32.6164 0.398178 2.9827
head 15.6504 0.981943 1.22484
rclavicle -1.56916e-014 2.18663e-015
rhumerus -33.2857 -6.19408 -79.3901
rradius 26.6017
rwrist 4.46932
rhand -20.0042 21.9241
rfingers 7.12502
rthumb 6.33578 -7.96114
lclavicle -1.56916e-014 2.18663e-015
lhumerus -35.2725 0.312414 85.8953
lradius 29.6015
lwrist 28.8096
lhand -22.3339 57.1208
lfingers 7.12502
lthumb 4.0863 87.0614
rfemur -9.80923 33.5908 18.6579
rtibia 19.9996
rfoot -23.9242 -44.3236
rtoes 16.1241
lfemur -14.7725 -26.0926 -13.3065
ltibia 28.1791
lfoot -26.766 31.4107
ltoes -20.9556
9
root -20.3853 17.3984 -2.92964 -126.564 87.2459 -131.968
lowerback 0.451068 0.825724 -0.0943987
upperback -1.23077 1.11154 0.430424
thorax -1.523 0.561809 0.473721
lowerneck -24.4877 0.902844 1.14437
upperneck 32.517 0.35521 2.90782
head 15.5889 0.954011 1.17508
rclavicle 9.91439e-015 1.03368e-014
rhumerus -33.3316 -6.1804 -79.2909
rradius 26.265
rwrist 4.61458
rhand -19.824 21.9727
rfingers 7.12502
rthumb 6.50974 -7.9073
lclavicle 9.91439e-015 1.03368e-014
lhumerus -35.3865 0.73907 85.7053
lradius 29.4249
lwrist 28.9135
lhand -22.5405 56.8355
lfingers 7.12502
lthumb 3.88679 86.7797
rfemur -9.76597 33.3687 18.6495
rtibia 19.9445
rfoot -24.4618 -44.1059
rtoes 17.7777
lfemur -14.8929 -25.9254 -13.2769
ltibia 28.1797
lfoot -24.7554 31.7063
ltoes -26.3701
10
root -20.3831 17.3987 -2.92443 -131.105 87.1784 -136.553
lowerback 0.468329 0.796207 -0.211095
upperback -1.26207 1.07048 0.399912
thorax -1.56596 0.542646 0.508024
lowerneck -24.4189 0.840291 1.13416
upperneck 32.4358 0.258854 2.93042
head 15.5363 0.914497 1.16405
rclavicle -5.93869e-015 4.77083e-015
rhumerus -33.4328 -6.18272 -79.2585
rradius 26.0011
rwrist 4.78113
rhand -20.014 21.856
rfingers 7.12502
rthumb 6.32628 -8.02954
lclavicle -5.93869e-015 4.77083e-015
lhumerus -35.4796 0.908037 85.5939
lradius 29.2463
lwrist 28.7349
lhand -22.6488 56.6329
lfingers 7.12502
lthumb 3.78223 86.5791
rfemur -9.70866 33.1513 18.5718
rtibia 19.8971
rfoot -24.9605 -43.9249
rtoes 19.2155
lfemur -14.9845 -25.9967 -13.329
ltibia 28.1715
lfoot -24.0349 31.7607
ltoes -28.366
